# xmcd
#
# Track frame offsets:
#	150
#	15213
#	31743
#	47203
#	64248
#	81335
#	99435
#	123150
#	134543
#	160695
#
# Disc length: 2289 seconds
#
# Revision: 1
# Processed by: cddbd v1.5.1PL0 Copyright (c) Steve Scherf et al.
# Submitted via: audiograbber 1.83.01
#
DISCID=7508ef0a
DTITLE=Roland Stone - The Original Ronald Stone
DYEAR=1900
DGENRE=Blues
TTITLE0=Go On Feel
TTITLE1=Lovey Dovey
TTITLE2=She's The One
TTITLE3=Try The Impossible
TTITLE4=You Can Make It If You Try
TTITLE5=Remember Me
TTITLE6=Please Don't Leave Me
TTITLE7=Down The Road
TTITLE8=The Masquerade Is Over
TTITLE9=Ain't Gonna Do It
EXTD=
EXTT0=
EXTT1=
EXTT2=
EXTT3=
EXTT4=
EXTT5=
EXTT6=
EXTT7=
EXTT8=
EXTT9=
PLAYORDER=
